<mxfile host="app.diagrams.net" agent="Mozilla/5.0 (Windows NT 10.0; Win64; x64; rv:139.0) Gecko/20100101 Firefox/139.0" version="26.2.14">
  <diagram name="ResNet-18" id="0">
    <mxGraphModel dx="1188" dy="633" grid="1" gridSize="10" guides="1" tooltips="1" connect="1" arrows="1" fold="1" page="1" pageScale="1" pageWidth="827" pageHeight="1169" math="0" shadow="0">
      <root>
        <mxCell id="0" />
        <mxCell id="1" parent="0" />
        <mxCell id="o9t1mgf-RKJijaVU1BYv-32" style="edgeStyle=orthogonalEdgeStyle;rounded=0;orthogonalLoop=1;jettySize=auto;html=1;entryX=0.5;entryY=0;entryDx=0;entryDy=0;sketch=1;curveFitting=1;jiggle=2;" edge="1" parent="1" source="o9t1mgf-RKJijaVU1BYv-2" target="o9t1mgf-RKJijaVU1BYv-4">
          <mxGeometry relative="1" as="geometry">
            <Array as="points">
              <mxPoint x="380" y="430" />
              <mxPoint x="455" y="430" />
            </Array>
          </mxGeometry>
        </mxCell>
        <mxCell id="o9t1mgf-RKJijaVU1BYv-2" value="&lt;div&gt;ResNet-18&lt;/div&gt;&lt;div&gt;Feature Extractor*&lt;/div&gt;" style="rounded=1;whiteSpace=wrap;html=1;fillColor=#f5f5f5;strokeColor=#666666;fontColor=#333333;" vertex="1" parent="1">
          <mxGeometry x="320" y="360" width="120" height="60" as="geometry" />
        </mxCell>
        <mxCell id="o9t1mgf-RKJijaVU1BYv-34" style="edgeStyle=orthogonalEdgeStyle;rounded=0;orthogonalLoop=1;jettySize=auto;html=1;entryX=0.5;entryY=0;entryDx=0;entryDy=0;sketch=1;curveFitting=1;jiggle=2;" edge="1" parent="1" source="o9t1mgf-RKJijaVU1BYv-4" target="o9t1mgf-RKJijaVU1BYv-8">
          <mxGeometry relative="1" as="geometry" />
        </mxCell>
        <mxCell id="o9t1mgf-RKJijaVU1BYv-47" style="edgeStyle=orthogonalEdgeStyle;rounded=0;orthogonalLoop=1;jettySize=auto;html=1;entryX=0.5;entryY=0;entryDx=0;entryDy=0;sketch=1;curveFitting=1;jiggle=2;" edge="1" parent="1" source="o9t1mgf-RKJijaVU1BYv-4" target="o9t1mgf-RKJijaVU1BYv-35">
          <mxGeometry relative="1" as="geometry">
            <Array as="points">
              <mxPoint x="520" y="470" />
              <mxPoint x="520" y="280" />
              <mxPoint x="265" y="280" />
            </Array>
          </mxGeometry>
        </mxCell>
        <mxCell id="o9t1mgf-RKJijaVU1BYv-4" value="&lt;div&gt;Generated&lt;/div&gt;&lt;div&gt;Feature Vectors&lt;/div&gt;" style="rounded=0;whiteSpace=wrap;html=1;fillColor=#d5e8d4;strokeColor=#82b366;sketch=1;curveFitting=1;jiggle=2;" vertex="1" parent="1">
          <mxGeometry x="405" y="440" width="100" height="40" as="geometry" />
        </mxCell>
        <mxCell id="o9t1mgf-RKJijaVU1BYv-13" style="edgeStyle=orthogonalEdgeStyle;rounded=0;orthogonalLoop=1;jettySize=auto;html=1;exitX=0.5;exitY=1;exitDx=0;exitDy=0;sketch=1;curveFitting=1;jiggle=2;" edge="1" parent="1" source="o9t1mgf-RKJijaVU1BYv-6">
          <mxGeometry relative="1" as="geometry">
            <mxPoint x="294.80952380952374" y="595" as="targetPoint" />
          </mxGeometry>
        </mxCell>
        <mxCell id="o9t1mgf-RKJijaVU1BYv-52" style="edgeStyle=orthogonalEdgeStyle;rounded=0;orthogonalLoop=1;jettySize=auto;html=1;exitX=0.5;exitY=0;exitDx=0;exitDy=0;entryX=0.5;entryY=0;entryDx=0;entryDy=0;fillColor=#f8cecc;strokeColor=#b85450;startArrow=classic;startFill=1;sketch=1;curveFitting=1;jiggle=2;" edge="1" parent="1" source="o9t1mgf-RKJijaVU1BYv-6" target="o9t1mgf-RKJijaVU1BYv-7">
          <mxGeometry relative="1" as="geometry">
            <Array as="points">
              <mxPoint x="295" y="500" />
              <mxPoint x="380" y="500" />
            </Array>
          </mxGeometry>
        </mxCell>
        <mxCell id="o9t1mgf-RKJijaVU1BYv-6" value="&lt;div&gt;Old Head,&amp;nbsp;&lt;span class=&quot;katex&quot;&gt;&lt;span class=&quot;katex-mathml&quot;&gt;&lt;math xmlns=&quot;http://www.w3.org/1998/Math/MathML&quot;&gt;&lt;mrow&gt;&lt;mi&gt;1&lt;/mi&gt;&lt;/mrow&gt;&lt;/math&gt;&lt;/span&gt;&lt;/span&gt;&lt;/div&gt;&lt;i&gt;Frozen&lt;/i&gt;" style="ellipse;whiteSpace=wrap;html=1;fillColor=#f5f5f5;strokeColor=#666666;fontColor=#333333;" vertex="1" parent="1">
          <mxGeometry x="260" y="510" width="70" height="70" as="geometry" />
        </mxCell>
        <mxCell id="o9t1mgf-RKJijaVU1BYv-14" style="edgeStyle=orthogonalEdgeStyle;rounded=0;orthogonalLoop=1;jettySize=auto;html=1;exitX=0.5;exitY=1;exitDx=0;exitDy=0;sketch=1;curveFitting=1;jiggle=2;" edge="1" parent="1" source="o9t1mgf-RKJijaVU1BYv-7">
          <mxGeometry relative="1" as="geometry">
            <mxPoint x="379.80952380952385" y="595" as="targetPoint" />
          </mxGeometry>
        </mxCell>
        <mxCell id="o9t1mgf-RKJijaVU1BYv-7" value="&lt;div&gt;Old Head,&amp;nbsp;&lt;span class=&quot;katex&quot;&gt;&lt;span class=&quot;katex-mathml&quot;&gt;&lt;math xmlns=&quot;http://www.w3.org/1998/Math/MathML&quot;&gt;&lt;mrow&gt;&lt;mi&gt;n&lt;/mi&gt;&lt;/mrow&gt;&lt;/math&gt;&lt;/span&gt;&lt;/span&gt;&lt;/div&gt;&lt;i&gt;Frozen&lt;/i&gt;" style="ellipse;whiteSpace=wrap;html=1;fillColor=#f5f5f5;strokeColor=#666666;fontColor=#333333;" vertex="1" parent="1">
          <mxGeometry x="345" y="510" width="70" height="70" as="geometry" />
        </mxCell>
        <mxCell id="o9t1mgf-RKJijaVU1BYv-15" style="edgeStyle=orthogonalEdgeStyle;rounded=0;orthogonalLoop=1;jettySize=auto;html=1;exitX=0.5;exitY=1;exitDx=0;exitDy=0;sketch=1;curveFitting=1;jiggle=2;" edge="1" parent="1" source="o9t1mgf-RKJijaVU1BYv-8">
          <mxGeometry relative="1" as="geometry">
            <mxPoint x="454.80952380952385" y="595" as="targetPoint" />
          </mxGeometry>
        </mxCell>
        <mxCell id="o9t1mgf-RKJijaVU1BYv-8" value="&lt;div&gt;New Head,&amp;nbsp;&lt;span class=&quot;katex&quot;&gt;&lt;span class=&quot;katex-mathml&quot;&gt;&lt;math xmlns=&quot;http://www.w3.org/1998/Math/MathML&quot;&gt;&lt;mrow&gt;&lt;mi&gt;n+1&lt;/mi&gt;&lt;/mrow&gt;&lt;/math&gt;&lt;/span&gt;&lt;/span&gt;&lt;/div&gt;&lt;div&gt;&lt;i&gt;Trainable&lt;/i&gt;&lt;/div&gt;" style="ellipse;whiteSpace=wrap;html=1;fillColor=#d5e8d4;strokeColor=#82b366;" vertex="1" parent="1">
          <mxGeometry x="420" y="510" width="70" height="70" as="geometry" />
        </mxCell>
        <mxCell id="o9t1mgf-RKJijaVU1BYv-12" value="..." style="text;html=1;align=center;verticalAlign=middle;whiteSpace=wrap;rounded=0;sketch=1;curveFitting=1;jiggle=2;fontStyle=1" vertex="1" parent="1">
          <mxGeometry x="307" y="520" width="60" height="30" as="geometry" />
        </mxCell>
        <mxCell id="o9t1mgf-RKJijaVU1BYv-22" value="" style="shape=curlyBracket;whiteSpace=wrap;html=1;rounded=1;flipH=1;labelPosition=right;verticalLabelPosition=middle;align=left;verticalAlign=middle;rotation=90;" vertex="1" parent="1">
          <mxGeometry x="365" y="530" width="20" height="160" as="geometry" />
        </mxCell>
        <mxCell id="o9t1mgf-RKJijaVU1BYv-23" value="" style="shape=curlyBracket;whiteSpace=wrap;html=1;rounded=1;flipH=1;labelPosition=right;verticalLabelPosition=middle;align=left;verticalAlign=middle;fillColor=#f5f5f5;fontColor=#333333;strokeColor=#666666;sketch=1;curveFitting=1;jiggle=2;" vertex="1" parent="1">
          <mxGeometry x="490" y="510" width="20" height="60" as="geometry" />
        </mxCell>
        <mxCell id="o9t1mgf-RKJijaVU1BYv-24" value="" style="shape=curlyBracket;whiteSpace=wrap;html=1;rounded=1;labelPosition=left;verticalLabelPosition=middle;align=right;verticalAlign=middle;rotation=-180;fillColor=#f5f5f5;fontColor=#333333;strokeColor=#666666;sketch=1;curveFitting=1;jiggle=2;" vertex="1" parent="1">
          <mxGeometry x="445" y="360" width="20" height="60" as="geometry" />
        </mxCell>
        <mxCell id="o9t1mgf-RKJijaVU1BYv-25" value="Frozen" style="text;html=1;align=center;verticalAlign=middle;whiteSpace=wrap;rounded=0;fontColor=#909090;sketch=1;curveFitting=1;jiggle=2;fontStyle=2" vertex="1" parent="1">
          <mxGeometry x="459" y="375" width="60" height="30" as="geometry" />
        </mxCell>
        <mxCell id="o9t1mgf-RKJijaVU1BYv-27" style="edgeStyle=orthogonalEdgeStyle;rounded=0;orthogonalLoop=1;jettySize=auto;html=1;exitX=0.5;exitY=1;exitDx=0;exitDy=0;sketch=1;curveFitting=1;jiggle=2;" edge="1" parent="1" source="o9t1mgf-RKJijaVU1BYv-26">
          <mxGeometry relative="1" as="geometry">
            <mxPoint x="374.33333333333326" y="680" as="targetPoint" />
          </mxGeometry>
        </mxCell>
        <mxCell id="o9t1mgf-RKJijaVU1BYv-26" value="&lt;div&gt;Consensus Aggregation&lt;/div&gt;&lt;div&gt;(Î£ or max)&lt;/div&gt;" style="text;html=1;align=center;verticalAlign=middle;whiteSpace=wrap;rounded=0;sketch=1;curveFitting=1;jiggle=2;" vertex="1" parent="1">
          <mxGeometry x="307" y="626" width="135" height="30" as="geometry" />
        </mxCell>
        <mxCell id="o9t1mgf-RKJijaVU1BYv-46" style="edgeStyle=orthogonalEdgeStyle;rounded=0;orthogonalLoop=1;jettySize=auto;html=1;sketch=1;curveFitting=1;jiggle=2;" edge="1" parent="1" source="o9t1mgf-RKJijaVU1BYv-28">
          <mxGeometry relative="1" as="geometry">
            <mxPoint x="375" y="730" as="targetPoint" />
          </mxGeometry>
        </mxCell>
        <mxCell id="o9t1mgf-RKJijaVU1BYv-28" value="&lt;div&gt;Final Probability&lt;/div&gt;&lt;div&gt;Distribution&lt;/div&gt;" style="text;html=1;align=center;verticalAlign=middle;whiteSpace=wrap;rounded=0;sketch=1;curveFitting=1;jiggle=2;" vertex="1" parent="1">
          <mxGeometry x="325" y="680" width="100" height="30" as="geometry" />
        </mxCell>
        <mxCell id="o9t1mgf-RKJijaVU1BYv-45" style="edgeStyle=orthogonalEdgeStyle;rounded=0;orthogonalLoop=1;jettySize=auto;html=1;entryX=0.5;entryY=0;entryDx=0;entryDy=0;sketch=1;curveFitting=1;jiggle=2;" edge="1" parent="1" source="o9t1mgf-RKJijaVU1BYv-29" target="o9t1mgf-RKJijaVU1BYv-2">
          <mxGeometry relative="1" as="geometry" />
        </mxCell>
        <mxCell id="o9t1mgf-RKJijaVU1BYv-29" value="Input Images" style="rounded=0;whiteSpace=wrap;html=1;fontStyle=2;fillColor=#d5e8d4;strokeColor=#82b366;sketch=1;curveFitting=1;jiggle=2;" vertex="1" parent="1">
          <mxGeometry x="330" y="300" width="100" height="40" as="geometry" />
        </mxCell>
        <mxCell id="o9t1mgf-RKJijaVU1BYv-49" style="edgeStyle=orthogonalEdgeStyle;rounded=0;orthogonalLoop=1;jettySize=auto;html=1;exitX=0.75;exitY=1;exitDx=0;exitDy=0;entryX=0.5;entryY=0;entryDx=0;entryDy=0;sketch=1;curveFitting=1;jiggle=2;" edge="1" parent="1" source="o9t1mgf-RKJijaVU1BYv-35" target="o9t1mgf-RKJijaVU1BYv-8">
          <mxGeometry relative="1" as="geometry">
            <mxPoint x="450" y="500" as="targetPoint" />
            <Array as="points">
              <mxPoint x="290" y="450" />
              <mxPoint x="390" y="450" />
              <mxPoint x="390" y="490" />
              <mxPoint x="455" y="490" />
            </Array>
          </mxGeometry>
        </mxCell>
        <mxCell id="o9t1mgf-RKJijaVU1BYv-50" style="edgeStyle=orthogonalEdgeStyle;rounded=0;orthogonalLoop=1;jettySize=auto;html=1;exitX=0.25;exitY=1;exitDx=0;exitDy=0;sketch=1;curveFitting=1;jiggle=2;fillColor=#f8cecc;strokeColor=#b85450;dashed=1;dashPattern=12 12;" edge="1" parent="1" source="o9t1mgf-RKJijaVU1BYv-35">
          <mxGeometry relative="1" as="geometry">
            <mxPoint x="290" y="500" as="targetPoint" />
            <Array as="points">
              <mxPoint x="240" y="500" />
            </Array>
          </mxGeometry>
        </mxCell>
        <mxCell id="o9t1mgf-RKJijaVU1BYv-35" value="&lt;div&gt;Stored&lt;/div&gt;&lt;div&gt;Feature Vectors&lt;/div&gt;" style="rounded=0;whiteSpace=wrap;html=1;fillColor=#f8cecc;strokeColor=#b85450;fontStyle=2;sketch=1;curveFitting=1;jiggle=2;" vertex="1" parent="1">
          <mxGeometry x="215" y="300" width="100" height="40" as="geometry" />
        </mxCell>
        <mxCell id="o9t1mgf-RKJijaVU1BYv-38" value="&lt;div&gt;each head consists of a unique classifier of&amp;nbsp;&amp;nbsp;&lt;span class=&quot;katex&quot;&gt;&lt;span class=&quot;katex-mathml&quot;&gt;&lt;math xmlns=&quot;http://www.w3.org/1998/Math/MathML&quot;&gt;&lt;mrow&gt;&lt;mi&gt;k&lt;/mi&gt;&lt;/mrow&gt;&lt;/math&gt;&lt;/span&gt;&lt;/span&gt;áµ¢ classes&lt;/div&gt;" style="text;html=1;align=center;verticalAlign=middle;whiteSpace=wrap;rounded=0;fontColor=#909090;sketch=1;curveFitting=1;jiggle=2;fontStyle=2" vertex="1" parent="1">
          <mxGeometry x="505" y="525" width="74" height="30" as="geometry" />
        </mxCell>
        <mxCell id="o9t1mgf-RKJijaVU1BYv-44" style="edgeStyle=orthogonalEdgeStyle;rounded=0;orthogonalLoop=1;jettySize=auto;html=1;entryX=0;entryY=0.5;entryDx=0;entryDy=0;sketch=1;curveFitting=1;jiggle=2;" edge="1" parent="1" source="o9t1mgf-RKJijaVU1BYv-42" target="o9t1mgf-RKJijaVU1BYv-26">
          <mxGeometry relative="1" as="geometry" />
        </mxCell>
        <mxCell id="o9t1mgf-RKJijaVU1BYv-42" value="Intentional fixed noise per-class" style="text;html=1;align=center;verticalAlign=middle;whiteSpace=wrap;rounded=0;fontStyle=2;sketch=1;curveFitting=1;jiggle=2;" vertex="1" parent="1">
          <mxGeometry x="200" y="626" width="80" height="30" as="geometry" />
        </mxCell>
        <mxCell id="o9t1mgf-RKJijaVU1BYv-48" value="genrated vectors stored for re-training of model with new heads" style="text;html=1;align=center;verticalAlign=middle;whiteSpace=wrap;rounded=0;fontStyle=2;fontColor=#909090;" vertex="1" parent="1">
          <mxGeometry x="272" y="234" width="130" height="30" as="geometry" />
        </mxCell>
        <mxCell id="o9t1mgf-RKJijaVU1BYv-51" value="old heads were trained on prior vectors" style="text;html=1;align=center;verticalAlign=middle;whiteSpace=wrap;rounded=0;fontStyle=2;fontColor=#B85450;" vertex="1" parent="1">
          <mxGeometry x="242" y="461" width="136" height="30" as="geometry" />
        </mxCell>
        <mxCell id="o9t1mgf-RKJijaVU1BYv-53" value="&lt;span class=&quot;katex&quot;&gt;&lt;span class=&quot;katex-mathml&quot;&gt;&lt;math xmlns=&quot;http://www.w3.org/1998/Math/MathML&quot;&gt;&lt;mrow&gt;&lt;mi&gt;i&lt;/mi&gt;&lt;mo&gt;â&lt;/mo&gt;&lt;mo stretchy=&quot;false&quot;&gt;{&lt;/mo&gt;&lt;mn&gt;1&lt;/mn&gt;&lt;mo separator=&quot;true&quot;&gt;,&lt;/mo&gt;&lt;mo&gt;â¦&lt;/mo&gt;&lt;mo separator=&quot;true&quot;&gt;,&lt;/mo&gt;&lt;mi&gt;n&lt;/mi&gt;&lt;mo&gt;+&lt;/mo&gt;&lt;mn&gt;1&lt;/mn&gt;&lt;mo stretchy=&quot;false&quot;&gt;}&lt;/mo&gt;&lt;/mrow&gt;&lt;/math&gt;&lt;/span&gt;&lt;/span&gt;" style="text;html=1;align=center;verticalAlign=middle;whiteSpace=wrap;rounded=0;fontStyle=2" vertex="1" parent="1">
          <mxGeometry x="166" y="525" width="100" height="30" as="geometry" />
        </mxCell>
      </root>
    </mxGraphModel>
  </diagram>
</mxfile>
